# xmcd
#
# Track frame offsets: 
#        150
#        19649
#        39866
#        53270
#        75463
#        93813
#        113521
#        130008
#        148587
#        164079
#        181642
#        201348
#
# Disc length: 2931 seconds
#
# Revision: 0
# Processed by: cddbd v1.5.2PL0 Copyright (c) Steve Scherf et al.
# Submitted via: ExactAudioCopy v1.0b1
#
DISCID=850b710c
DTITLE=楊丞琳 (レイニー･ヤン) - 雨愛
DYEAR=2010
DGENRE=C-POP
TTITLE0=雨愛
TTITLE1=In Your Eyes
TTITLE2=青春鬥 青春の戦い
TTITLE3=調皮的愛神 いたずらなキューピッド
TTITLE4=折疊式愛情 折りたたみ式の愛情
TTITLE5=匿名的好友 匿名の親友
TTITLE6=要我的命 もう死にそう
TTITLE7=絕對達令 絶対彼氏
TTITLE8=新流感 新型インフルエンザ
TTITLE9=二度戀愛 二度目の純愛
TTITLE10=S.H.E. (Mandarin version)
TTITLE11=曖昧（Japanese version）
EXTD=
EXTT0=
EXTT1=
EXTT2=
EXTT3=
EXTT4=
EXTT5=
EXTT6=
EXTT7=
EXTT8=
EXTT9=
EXTT10=
EXTT11=
PLAYORDER=
